<svg width="173" height="173" viewBox="0 0 173 173" fill="none" xmlns="http://www.w3.org/2000/svg">
<path d="M173 165.785C173 146.65 173 95.8323 173 95.8323C173 90.4996 170.804 85.1668 167.04 81.4025L91.5975 5.96009C87.8332 2.19581 82.6573 -3.94901e-06 77.1677 -4.18896e-06C77.1677 -4.18896e-06 17.8803 -6.7805e-06 3.2937 -7.4181e-06C1.56841 -7.49351e-06 -6.17026e-08 1.41158 -1.43974e-07 3.29372L-2.6738e-07 6.11694L-2.53667e-07 5.80323C0.62738 2.50948 3.76427 3.92111 5.17587 5.33271L31.9964 31.9964C68.2276 68.2276 104.616 104.616 140.847 140.847L168.138 167.04C168.765 167.51 168.922 168.295 169.079 168.922C169.236 170.177 168.295 171.275 167.197 171.745L164.687 173L165.785 173C169.706 173 173 169.863 173 165.785Z" fill="url(#paint0_linear_1574_14888)"/>
<defs>
<linearGradient id="paint0_linear_1574_14888" x1="65.8335" y1="98.1737" x2="165.836" y2="37.8418" gradientUnits="userSpaceOnUse">
<stop stop-color="#FFCB5C"/>
<stop offset="1" stop-color="#FFBD2F"/>
</linearGradient>
</defs>
</svg>
