<svg width="11" height="14" viewBox="0 0 11 14" fill="none" xmlns="http://www.w3.org/2000/svg">
<path d="M9.10939 0.10375C10.1535 0.10375 11 0.952926 11 2.00044V11.9999C11 13.0475 10.1535 13.8966 9.10939 13.8966H1.89061C0.846456 13.8966 0 13.0475 0 11.9999V2.00044C0 1.13214 0.581597 0.400122 1.3753 0.175059L1.37473 1.31086C1.16615 1.46816 1.03124 1.7185 1.03124 2.00044V11.9999C1.03124 12.4761 1.416 12.8621 1.89061 12.8621H9.10939C9.584 12.8621 9.96876 12.4761 9.96876 11.9999V2.00044C9.96876 1.5243 9.584 1.13831 9.10939 1.13831L7.56245 1.13795V0.103394L9.10939 0.10375ZM6.87503 0.103394V5.71681C6.87503 6.23213 6.32543 6.42559 5.9887 6.24404L5.93164 6.2081L4.47004 5.32152L3.04134 6.18463C2.69781 6.43341 2.12671 6.28066 2.06755 5.79996L2.06255 5.71681V0.103394H6.87503ZM5.84378 1.13795H3.0938V4.94737L4.17542 4.2928C4.35712 4.19749 4.57696 4.19569 4.73726 4.27635L5.84378 4.94785V1.13795Z" fill="#728796"/>
</svg>
