<svg width="30" height="30" viewBox="0 0 30 30" fill="none" xmlns="http://www.w3.org/2000/svg">
<path d="M26.0497 5.76249C25.4112 5.12375 24.6532 4.61705 23.8189 4.27135C22.9845 3.92565 22.0903 3.74771 21.1872 3.74771C20.2841 3.74771 19.3898 3.92565 18.5555 4.27135C17.7211 4.61705 16.9631 5.12375 16.3247 5.76249L14.9997 7.08749L13.6747 5.76249C12.385 4.47288 10.636 3.74838 8.81216 3.74838C6.98837 3.74838 5.23928 4.47288 3.94966 5.76249C2.66005 7.05211 1.93555 8.8012 1.93555 10.625C1.93555 12.4488 2.66005 14.1979 3.94966 15.4875L5.27466 16.8125L14.9997 26.5375L24.7247 16.8125L26.0497 15.4875C26.6884 14.849 27.1951 14.091 27.5408 13.2567C27.8865 12.4224 28.0644 11.5281 28.0644 10.625C28.0644 9.72188 27.8865 8.82762 27.5408 7.9933C27.1951 7.15897 26.6884 6.40094 26.0497 5.76249V5.76249Z" stroke="#FFC038" stroke-width="2" stroke-linecap="round" stroke-linejoin="round"/>
</svg>
