<svg width="55" height="55" viewBox="0 0 55 55" fill="none" xmlns="http://www.w3.org/2000/svg">
<path d="M4.58398 6.875H18.334C20.7651 6.875 23.0967 7.84077 24.8158 9.55985C26.5349 11.2789 27.5006 13.6105 27.5006 16.0417V48.125C27.5006 46.3016 26.7763 44.553 25.487 43.2636C24.1977 41.9743 22.449 41.25 20.6256 41.25H4.58398V6.875Z" stroke="#FFC038" stroke-width="2.5" stroke-linecap="round" stroke-linejoin="round"/>
<path d="M50.4167 6.875H36.6667C34.2355 6.875 31.9039 7.84077 30.1849 9.55985C28.4658 11.2789 27.5 13.6105 27.5 16.0417V48.125C27.5 46.3016 28.2243 44.553 29.5136 43.2636C30.803 41.9743 32.5516 41.25 34.375 41.25H50.4167V6.875Z" stroke="#FFC038" stroke-width="2.5" stroke-linecap="round" stroke-linejoin="round"/>
</svg>
