<svg width="22" height="22" viewBox="0 0 22 22" fill="none" xmlns="http://www.w3.org/2000/svg">
<path d="M15.5385 0.166687H6.46018C2.51685 0.166687 0.166016 2.51752 0.166016 6.46085V15.5284C0.166016 19.4825 2.51685 21.8334 6.46018 21.8334H15.5277C19.471 21.8334 21.8218 19.4825 21.8218 15.5392V6.46085C21.8327 2.51752 19.4818 0.166687 15.5385 0.166687ZM16.1777 8.50835L10.0352 14.6509C9.88284 14.803 9.67633 14.8885 9.46102 14.8885C9.2457 14.8885 9.03919 14.803 8.88685 14.6509L5.82102 11.585C5.66991 11.4321 5.58517 11.2258 5.58517 11.0109C5.58517 10.7959 5.66991 10.5896 5.82102 10.4367C6.13518 10.1225 6.65518 10.1225 6.96935 10.4367L9.46102 12.9284L15.0293 7.36002C15.3435 7.04585 15.8635 7.04585 16.1777 7.36002C16.4918 7.67419 16.4918 8.18335 16.1777 8.50835Z" fill="#FFD265"/>
</svg>
