<?xml version="1.0" encoding="UTF-8" standalone="no"?>
<!DOCTYPE svg PUBLIC "-//W3C//DTD SVG 1.1//EN" "http://www.w3.org/Graphics/SVG/1.1/DTD/svg11.dtd">
<svg xmlns="http://www.w3.org/2000/svg" version="1.1" viewBox="0.00 0.00 24.00 24.00">
<path fill="#eae9ea" d="
  M 18.23 3.95
  C 17.26 4.08 15.00 4.11 14.16 3.56
  A 0.84 0.84 0.0 0 1 14.65 2.02
  L 20.24 2.17
  A 1.26 1.23 75.6 0 1 21.28 2.80
  C 22.30 4.58 22.61 16.78 21.50 20.66
  A 1.04 1.01 89.2 0 1 20.84 21.36
  Q 17.65 22.46 14.41 21.61
  A 0.72 0.71 -69.6 0 1 13.95 20.60
  C 14.38 19.71 18.31 20.03 19.51 19.66
  Q 20.00 19.51 20.00 19.01
  L 20.00 5.49
  A 1.55 1.55 0.0 0 0 18.23 3.95
  Z"
/>
<path fill="#eae9ea" d="
  M 11.88 10.21
  L 9.75 8.24
  Q 9.57 8.08 9.23 7.49
  Q 8.83 6.78 9.45 6.17
  Q 9.98 5.66 10.50 6.17
  L 15.58 11.08
  A 1.15 1.15 0.0 0 1 15.63 12.69
  Q 13.24 15.28 10.60 17.68
  A 0.95 0.95 0.0 0 1 9.31 16.29
  L 11.89 13.87
  A 0.49 0.49 0.0 0 0 11.55 13.03
  L 2.78 12.99
  Q 2.14 12.98 2.08 12.35
  L 2.00 11.62
  A 0.46 0.46 0.0 0 1 2.45 11.11
  L 11.60 10.95
  A 0.43 0.43 0.0 0 0 11.88 10.21
  Z"
/>
</svg>
