<svg width="55" height="55" viewBox="0 0 55 55" fill="none" xmlns="http://www.w3.org/2000/svg">
<path d="M45.834 16.0416H9.16732C6.63601 16.0416 4.58398 18.0937 4.58398 20.625V43.5416C4.58398 46.0729 6.63601 48.125 9.16732 48.125H45.834C48.3653 48.125 50.4173 46.0729 50.4173 43.5416V20.625C50.4173 18.0937 48.3653 16.0416 45.834 16.0416Z" stroke="#FFC038" stroke-width="2.5" stroke-linecap="round" stroke-linejoin="round"/>
<path d="M36.6673 48.125V11.4583C36.6673 10.2428 36.1844 9.07697 35.3249 8.21743C34.4653 7.35789 33.2996 6.875 32.084 6.875H22.9173C21.7017 6.875 20.536 7.35789 19.6764 8.21743C18.8169 9.07697 18.334 10.2428 18.334 11.4583V48.125" stroke="#FFC038" stroke-width="2.5" stroke-linecap="round" stroke-linejoin="round"/>
</svg>
