<svg width="14" height="14" viewBox="0 0 14 14" fill="none" xmlns="http://www.w3.org/2000/svg">
<g clip-path="url(#clip0_3543_6593)">
<path d="M11.4691 0C10.4376 0 9.58336 0.751428 9.41479 1.73714H0.794788C0.600502 1.73714 0.443359 1.89429 0.443359 2.08857C0.443359 2.28286 0.600502 2.44 0.794788 2.44H9.41193C9.5805 3.42286 10.4348 4.17714 11.4662 4.17714C12.6176 4.17714 13.5519 3.24286 13.5519 2.09143C13.5519 0.94 12.6176 0 11.4691 0ZM11.4691 3.47143C10.7062 3.47143 10.0834 2.84857 10.0834 2.08571C10.0834 1.32286 10.7062 0.7 11.4691 0.7C12.2319 0.7 12.8548 1.32286 12.8548 2.08571C12.8548 2.84857 12.2319 3.47143 11.4691 3.47143Z" fill="#728796"/>
<path d="M13.2053 6.62856H4.58531C4.41674 5.6457 3.56246 4.89142 2.53103 4.89142C1.3796 4.89142 0.445312 5.8257 0.445312 6.97713C0.445312 8.12856 1.38246 9.06285 2.53103 9.06285C3.56246 9.06285 4.41674 8.31142 4.58531 7.3257H13.2025C13.3967 7.3257 13.5539 7.16856 13.5539 6.97428C13.5539 6.7857 13.3967 6.62856 13.2053 6.62856ZM2.53103 8.3657C1.76817 8.3657 1.14531 7.74285 1.14531 6.97999C1.14531 6.21713 1.76817 5.59428 2.53103 5.59428C3.29388 5.59428 3.91674 6.21713 3.91674 6.97999C3.91674 7.74285 3.29674 8.3657 2.53103 8.3657Z" fill="#728796"/>
<path d="M11.4691 9.82285C10.4376 9.82285 9.58336 10.5743 9.41479 11.56H0.794788C0.600502 11.56 0.443359 11.7171 0.443359 11.9114C0.443359 12.1057 0.600502 12.2628 0.794788 12.2628H9.41193C9.5805 13.2457 10.4348 14 11.4662 14C12.6176 14 13.5519 13.0657 13.5519 11.9143C13.5519 10.7628 12.6176 9.82285 11.4691 9.82285ZM11.4691 13.2943C10.7062 13.2943 10.0834 12.6714 10.0834 11.9086C10.0834 11.1457 10.7062 10.5228 11.4691 10.5228C12.2319 10.5228 12.8548 11.1457 12.8548 11.9086C12.8548 12.6714 12.2319 13.2943 11.4691 13.2943Z" fill="#728796"/>
</g>
<defs>
<clipPath id="clip0_3543_6593">
<rect width="14" height="14" fill="white"/>
</clipPath>
</defs>
</svg>
