<svg width="62" height="62" viewBox="0 0 62 62" fill="none" xmlns="http://www.w3.org/2000/svg">
<path d="M46.5007 46.5C47.5284 46.5 48.514 46.0917 49.2407 45.365C49.9674 44.6383 50.3757 43.6527 50.3757 42.625V33.1622C50.3757 32.1345 49.9674 31.1489 49.2407 30.4222C48.514 29.6955 47.5284 29.2873 46.5007 29.2873H41.1222C41.1222 27.9271 41.2035 26.5631 41.3624 25.203C41.6027 23.7615 42.0057 22.4789 42.5637 21.359C43.1255 20.2353 43.8463 19.3556 44.7298 18.7124C45.6094 17.9916 46.7293 17.6313 48.0933 17.6313V11.625C45.8497 11.625 43.8889 12.1055 42.2033 13.0665C40.5323 14.0178 39.0957 15.3313 37.9989 16.9105C36.8981 18.6516 36.0868 20.5596 35.5964 22.5603C35.1023 24.7681 34.8605 27.0249 34.8757 29.2873V42.625C34.8757 43.6527 35.2839 44.6383 36.0106 45.365C36.7373 46.0917 37.723 46.5 38.7507 46.5H46.5007ZM23.2507 46.5C24.2784 46.5 25.264 46.0917 25.9907 45.365C26.7174 44.6383 27.1257 43.6527 27.1257 42.625V33.1622C27.1257 32.1345 26.7174 31.1489 25.9907 30.4222C25.264 29.6955 24.2784 29.2873 23.2507 29.2873H17.8722C17.8722 27.9271 17.9535 26.5631 18.1124 25.203C18.3527 23.7615 18.7557 22.4789 19.3137 21.359C19.8755 20.2353 20.5963 19.3556 21.4798 18.7124C22.3594 17.9916 23.4793 17.6313 24.8433 17.6313V11.625C22.5997 11.625 20.6389 12.1055 18.9533 13.0665C17.2823 14.0178 15.8457 15.3313 14.7489 16.9105C13.6481 18.6516 12.8368 20.5596 12.3464 22.5603C11.8523 24.7681 11.6105 27.0249 11.6257 29.2873V42.625C11.6257 43.6527 12.0339 44.6383 12.7606 45.365C13.4873 46.0917 14.473 46.5 15.5007 46.5H23.2507Z" fill="#355164"/>
</svg>
