<svg width="353" height="375" viewBox="0 0 353 375" fill="none" xmlns="http://www.w3.org/2000/svg">
<path d="M639.6 25.131L639.601 25.1357C646.395 94.4128 632.384 172.156 594.147 217.006C575.044 239.412 549.851 253.662 521.564 266.308C511.239 270.924 500.486 275.331 489.471 279.846C470.368 287.676 450.478 295.829 430.669 305.95L430.665 305.953C415.625 313.759 400.587 322.679 385.833 331.431L384.091 332.464C368.771 341.55 353.772 350.398 339.366 357.6C310.495 372.033 284.279 379.709 262.816 369.744L262.808 369.74C251.969 364.878 242.256 355.531 233.04 343.091C223.828 330.656 215.157 315.192 206.38 298.172C202.179 290.026 197.954 281.523 193.636 272.831C179.929 245.244 165.276 215.755 147.444 189.724C128.548 162.14 106.069 138.416 84.5366 115.692C79.3392 110.207 74.197 104.781 69.1738 99.372C43.3102 71.5238 20.5959 44.1522 9.44455 11.6528L9.44396 11.6511C-1.7051 -20.5898 -1.42074 -58.0439 6.26818 -96.0705C13.9559 -134.091 29.036 -172.634 47.4205 -207.018C65.8054 -241.149 87.3735 -270.955 111.014 -293.103C134.657 -315.253 160.336 -329.71 186.95 -333.228L186.956 -333.229C213.582 -337 241.254 -329.84 268.494 -319.723C279.98 -315.456 291.367 -310.673 302.557 -305.973C304.632 -305.101 306.7 -304.233 308.76 -303.371C321.925 -297.864 334.785 -292.63 347.128 -288.694L347.13 -288.694C370.485 -281.307 391.984 -278.504 412.062 -275.887C413.382 -275.715 414.695 -275.544 416.003 -275.372C437.224 -272.586 456.835 -269.684 475.535 -261.378C512.542 -244.764 545.664 -206.446 576.064 -156.344C606.049 -106.268 633.21 -44.5993 639.6 25.131Z" fill="#162A38" stroke="url(#paint0_linear_1856_22943)" stroke-width="1.5"/>
<defs>
<linearGradient id="paint0_linear_1856_22943" x1="23.9484" y1="-183.564" x2="508.216" y2="208.136" gradientUnits="userSpaceOnUse">
<stop stop-color="#F5F5F5" stop-opacity="0"/>
<stop offset="1" stop-color="#FF930F"/>
</linearGradient>
</defs>
</svg>
